<?xml version="1.0" encoding="UTF-8"?>
<svg id="Calque_1" data-name="Calque 1" xmlns="http://www.w3.org/2000/svg" viewBox="0 0 1210.02 678.82">
  <defs>
    <style>
      .cls-1 {
        fill: #767676;
      }

      .cls-2 {
        fill: #fc0003;
      }

      .cls-3 {
        fill: #00fdfd;
      }

      .cls-4 {
        fill: #fbfefe;
      }
    </style>
  </defs>
  <path class="cls-2" d="M545.33,673.28c-11.21-1.49-22.47-2.7-33.62-4.56-7.69-1.28-15.24-3.42-22.84-5.22-30.06-7.12-59.11-17.46-87.52-29.32-30.27-12.64-59.35-27.87-88.26-43.42-23.69-12.74-45.79-27.94-68.45-42.25-16.73-10.57-32.36-22.84-48.62-34.14-22.9-15.9-44.67-33.22-66.17-50.87-9.55-7.84-18.84-16.15-27.96-24.6-7.19-6.66-15.28-12.59-22.63-19.17-6.63-5.93-13.46-11.68-19.53-18.29-5.25-5.71-11.84-10.16-17.41-15.59-13-12.67-25.79-25.56-38.56-38.45-4.99-5.04-4.98-8.24-.12-13.15,10.89-11.02,22.01-21.82,32.78-32.96,14.7-15.21,30.53-29.2,46.21-43.36,19.1-17.25,39.61-32.79,59.31-49.32,26.92-22.59,55.13-43.49,83.96-63.51,29.39-20.42,59.65-39.48,90.85-57.1,27.9-15.76,56.75-29.47,86.05-42.22,23.04-10.03,46.95-17.85,71.22-24.52,36.13-9.94,72.8-15.77,110.34-15.69,1.68-2.02,4.06-1.43,6.09-1.31,15.26,.89,30.54,.81,45.76,3.24,17.17,2.74,34.01,6.62,50.54,11.76,23.12,7.19,45.46,16.45,66.3,28.86,28.89,17.19,55.81,37.04,78.46,62.08,9.48,10.48,19.15,20.9,27.13,32.62,4.23,6.21,9.85,11.29,13.69,17.77,.89,2.77,2.96,4.83,4.59,7.1,8.15,11.4,12.53,24.52,17.62,37.35,9.22,23.25,16.99,46.93,21.74,71.53,4.05,20.97,5.53,42.13,5.83,63.48,.38,27.8-2.31,55.23-9.32,82.06-7.93,30.33-18.45,59.77-33.96,87.21-.33,.59-.42,1.26-.6,1.89-9.39,11.27-19.62,21.62-32.11,29.52-15.44,9.77-30.81,19.66-46.84,28.42-13.85,7.56-27.89,14.81-42.22,21.44-5.74,2.65-8.86,1-9.87-4.45,1.97-4.27,5.77-6.85,9.3-9.51,15.67-11.76,29.71-25.33,42.08-40.38,11.51-14.01,21.34-29.33,30.48-45.06,9.1-15.67,15.52-32.53,21.02-49.57,8.86-27.41,16.05-55.31,14.97-84.63-.49-13.31-.14-26.65-.07-39.98,.08-15.94-3.13-31.41-6.53-46.85-4.67-21.21-12.5-41.41-19.56-61.87-2.85-8.25-7.96-15.37-12.17-22.9-5.75-10.29-11.71-20.57-19.46-29.59-5.85-6.82-10.96-14.2-17.05-20.87-20.31-22.24-43.93-40.1-70.03-54.93-17.38-9.87-36.03-16.71-55.11-21.92-16.63-4.54-33.72-7.33-51.22-7.49-24.39-.23-48.58,.58-72.47,6.04-3.57,.82-7.01,2.12-10.63,2.68-28.01,7.41-55.24,17-81.44,29.41-33.59,15.9-65.47,34.76-96.07,55.83-5.88,4.05-11.06,9.05-17.31,12.57-7.12,3.97-13.49,9.06-19.92,13.99-24.57,18.85-48.65,38.29-71.6,59.12-16.39,14.88-33.02,29.54-48.54,45.28-12.49,12.67-25.4,24.97-37.28,38.26-5.76,6.45-11.55,12.89-17.6,19.08-6.23,6.38-5.98,8.3,.15,14.9,17.78,19.15,34.83,39.01,54.01,56.79,19.64,18.2,38.74,36.97,58.96,54.58,24.13,21.01,49.41,40.51,74.48,60.32,.67,.53,1.51,.69,2.29,.97,6.09,5.17,11.68,10.8,16.71,17.06,11.07,13.75,23.02,26.73,34.89,39.8,10.97,12.07,23.31,22.52,36.28,31.96,13.13,9.55,26.67,18.8,41.23,26.32,18.99,9.81,38.54,18.24,58.97,24.53,7.32,2.26,14.65,4.47,21.98,6.7,2.98,.9,6.48,1.94,4.41,6.49Z"/>
  <path class="cls-1" d="M335.59,155.73c12.29-11.05,26.33-19.64,40.09-28.62,24.03-15.68,49.36-29,75.09-41.57,15.25-7.45,31.24-12.97,47.3-18.43,10.55-3.59,20.97-7.37,32-9.17,1.56,3.87-1.26,5.51-3.82,6.99-3.16,1.83-6.61,3.16-10,4.54-27.24,11.14-51.84,26.76-74,45.86-25.68,22.13-46.52,48.37-62.64,78.36-6.58,12.24-11.36,25.13-16.5,37.96-8.91,22.24-14.88,45.15-17.52,68.92-2.35,21.22-1.73,42.5-.96,63.8,.9,24.74,7.23,48.33,14.15,71.8,3.62,12.28,7.47,24.73,13.22,36.05,7.04,13.85,13.5,28.31,23.34,40.51,11.77,14.58,22.78,29.81,36.61,42.72,16.92,15.79,35.47,29.19,55.73,40.23,13.46,7.33,28.27,11.47,42.43,17.11,15.87,6.32,32.38,8.69,48.95,11.32,7.61,1.21,15.3,.27,22.94,.54,31.88,1.1,62.52-5.57,92.72-14.9,8.79-2.72,16.61-7.65,25.01-11.26,7.32-3.14,15.04-5.48,21.37-10.65,1.29-1.06,2.94-1.6,4.69-.86,4.98,5.6,10.26,2.73,15.04,.05,15.35-8.59,31.63-15.43,46.57-24.75,16.89-10.54,34.62-19.77,50.16-32.42,5.57-4.54,10.03-10.13,14.99-15.24,1.15-1.18,1.98-2.68,3.8-2.98,9.47-8.37,19.91-15.51,29.76-23.42,22.72-18.25,44.72-37.28,66.31-56.87,20.11-18.25,39.14-37.58,58.44-56.64,9.72-9.6,18.04-20.48,27.78-30.07,4.26-4.19,3.92-5.9,.05-10.09-17.95-19.45-35.94-38.88-55.18-57.07-19.7-18.63-39.15-37.52-59.67-55.31-20.27-17.56-41.68-33.7-62.13-51.02-3.93-3.33-6.94-7.62-11.33-10.43-18.14-22.96-35.6-46.55-57.46-66.24-33.87-30.5-71.79-54.35-115.09-69.34-17.82-6.17-35.9-11.31-54.46-14.44-13.75-2.32-27.55-4.6-41.64-4.2-5.79,.16-11.61-.58-17.41-.91-.38-2.26,1.18-2.43,2.75-2.52,15.37-.85,30.52-4.36,46.13-2.56,9.2,1.06,18.64-.26,27.87,1.35,13.83,2.41,27.88,3.13,41.6,6.74,12,3.16,24.21,5.7,36.11,9.23,26.12,7.75,51.64,17.18,76.64,28.08,27.32,11.91,53.81,25.44,79.73,40.06,16.78,9.47,33.03,19.88,49.46,29.95,18,11.04,35.58,22.73,52.47,35.39,23.1,17.33,46.5,34.25,68.95,52.51,17.41,14.16,33.91,29.36,51.43,43.39,11.92,9.55,22.82,20.38,34.1,30.73,17.18,15.76,33.63,32.29,49.92,48.96,12.22,12.51,10.55,13.34-.18,25.7-11.65,13.42-25.32,24.84-38.01,37.25-16.49,16.13-33.5,31.72-51.02,46.67-19.53,16.66-38.99,33.41-59.36,49.09-16.42,12.64-32.88,25.21-49.49,37.61-17.69,13.2-36.31,24.97-54.45,37.46-21.18,14.57-43.91,26.54-66.02,39.55-25.26,14.86-52.26,26.09-78.69,38.48-13.32,6.24-27.52,10.69-41.49,15.44-23.21,7.9-46.91,13.9-70.99,18.72-37.39,7.47-75.08,6.09-112.78,5.36-8.45-.16-16.89-1.34-25.32-2.25-2.91-.32-6.04-.38-8.36-2.69-.05-3.39-2.35-4.16-5.15-4.96-22.08-6.29-43.86-13.37-64.75-23.06-20.92-9.7-40.23-22.06-58.87-35.43-19.95-14.3-36.89-31.87-52.91-50.4-10.96-12.67-21.12-26.05-33.24-37.7-5.95-7.62-11.47-15.66-15.01-24.58-7.36-18.55-15.28-36.93-20.91-56.13-6.47-22.06-11.63-44.34-13.73-67.36-1.64-17.96-2.56-35.93-1.53-53.84,1.42-24.76,5.23-49.23,12.05-73.21,5.62-19.76,13.65-38.58,21.12-57.63,5.05-12.89,13.35-23.64,23.19-33.26Z"/>
  <path d="M745.82,586.97c-28.02,18.2-58.96,28.98-91.57,35.02-37.08,6.87-74.18,6.88-110.9-2.6-8.49-2.19-16.59-5.87-24.96-8.57-27.15-8.77-50.96-23.54-72.93-41.29-13.17-10.65-25.32-22.39-35.81-35.96-8.62-11.15-18.13-21.68-24.85-34.08-6.29-11.61-13.74-22.59-18.05-35.31-5.98-17.66-12.41-35.13-16.8-53.3-4.12-17.05-7.16-34.24-7.47-51.75-.49-27.46-1.24-55.02,4.89-82.06,3.89-17.19,9.25-33.94,15.29-50.56,8.51-23.4,20.49-44.74,34.74-64.94,18.1-25.68,40.46-47.08,66.08-65.21,18.84-13.33,39.2-23.78,60.5-32.47,2.95-1.2,5.31-2.68,6.08-5.94,15.29-4.98,31.2-7.54,47.03-8.44,20.54-1.17,41.19-1.73,61.79,1.48,24.73,3.86,48.27,11.33,70.84,21.77,14.04,6.5,27.11,14.87,39.74,23.93,18.92,13.57,35.68,29.35,50.65,47.13,15.2,18.06,27.16,38.23,38.18,58.94,3.79,7.12,5.57,15.3,8.44,22.93,8.7,23.15,14.64,47.02,18.55,71.4,.97,6.06,1.39,12.27,1.35,18.41-.14,21.8,1.21,43.64-.96,65.41-1.42,14.29-4.73,28.18-8.3,42.07-4.28,16.66-10.15,32.78-16.78,48.53-8.49,20.14-20.46,38.43-33.35,56.1-11.34,15.56-24.75,29.15-39.12,41.8-7.1,6.25-14.86,11.74-22.32,17.57Z"/>
  <path d="M335.59,155.73c-1.17,3.98-4,6.89-6.64,9.84-10.34,11.57-15.28,25.89-21.06,39.89-9.37,22.68-16.86,45.89-21.37,70.01-6.01,32.07-6.82,64.34-3.92,96.84,2.6,29.22,9.59,57.34,19.35,84.85,4.9,13.79,10.19,27.45,15.84,40.95,2.29,5.46,5.97,10.34,9.14,15.41,1.62,2.58,2.67,5.34,3.48,8.23-8.02-4.15-14.85-10.07-21.89-15.54-15.77-12.24-31.4-24.72-46.41-37.86-11.13-9.74-22.75-18.96-33.24-29.46-16.48-16.49-34.33-31.58-50.34-48.55-13.94-14.77-27.78-29.64-41.58-44.54-3.66-3.95-3.55-6.94,.33-11.44,3.8-4.41,7.92-8.55,11.83-12.87,11.73-12.97,24.29-25.15,36.4-37.76,16.4-17.06,33.76-33.08,51.24-48.96,30.44-27.66,62.11-53.87,95.71-77.66,.91-.65,2.08-.93,3.13-1.38Z"/>
  <path d="M870.39,160.72c2.15-.92,3.43,.53,4.78,1.76,16.16,14.78,33.62,27.98,50.62,41.74,11.21,9.07,21.85,18.85,32.63,28.43,25.25,22.44,49.43,46.02,73.15,70.05,10.51,10.65,20.49,21.83,30.74,32.74,2.81,2.99,1.98,5.8-.38,8.4-5.36,5.92-10.91,11.67-16.22,17.63-16.74,18.8-34.71,36.44-52.97,53.7-27.68,26.16-55.92,51.73-86.13,75.04-8.29,6.4-16.43,13-24.85,19.24-1.61,1.19-3.17,2.49-5.38,2.16-.86-4.13,2.3-6.79,3.86-9.95,18.99-38.48,32.84-78.5,37.42-121.43,5.83-54.71-.44-107.9-19.7-159.49-4.66-12.47-9.23-24.99-14.55-37.18-2.77-6.34-7.11-11.99-10.74-17.96-.94-1.55-2.23-2.94-2.26-4.9Z"/>
  <path class="cls-3" d="M683.84,11.92c5.25,.46,9.8-.94,14.17,1.55,3.85,2.2,8.37,1.92,12.55,2.89,22.59,5.26,44.6,12.3,66.4,20.25,17.75,6.47,35.11,13.81,52.17,21.72,25.57,11.85,50.53,24.99,74.76,39.47,13.64,8.15,27.13,16.52,40.63,24.9,26.4,16.37,51.43,34.66,76.17,53.39,9.89,7.48,20.36,14.25,29.76,22.29,17.27,14.76,35.36,28.54,52.05,44.01,7.86,7.29,16.54,13.68,24.53,20.83,9.75,8.72,19.19,17.78,28.71,26.74,6.14,5.78,12.27,11.58,18.27,17.51,9.17,9.08,18.21,18.3,27.35,27.41,3.03,3.02,3.28,5.75,.06,8.91-8.86,8.7-17.66,17.46-26.33,26.36-12.44,12.77-25.96,24.36-38.92,36.56-11.31,10.65-22.95,20.91-34.56,31.21-11.55,10.24-23.27,20.32-35.39,29.86-9.31,7.32-18.17,15.25-27.78,22.11-12.21,8.72-24.18,17.79-36.2,26.73-19.05,14.18-38.99,26.97-58.62,40.24-18.26,12.34-37.44,23.1-56.57,33.99-9.37,5.33-18.67,10.8-28.32,15.58-17.69,8.76-35.4,17.56-53.51,25.42-14.32,6.21-29.16,11.29-43.94,16.38-11.03,3.8-22.48,6.37-33.61,9.8-13.95,4.29-28.26,6.72-42.37,10.07-10.09,2.4-20.71,2.63-31.12,3.57-20.94,1.9-41.96,.98-62.89,.33-11.86-.36-23.69-2.99-35.47-5.14-21.22-3.87-41.7-10.13-61.64-18.12-22.74-9.12-44.04-20.89-64.37-34.73-13.19-8.98-25.62-18.75-37.06-29.7-12.61-12.07-24.17-25.21-35.43-38.57-5.76-6.83-11.5-13.72-16.64-21.02-4.91-6.97-9.43-14.29-13.4-21.84-11.2-21.32-19.16-43.97-26.22-66.92-6.14-19.97-10.22-40.35-12.34-61.22-2.01-19.78-2.07-39.58-1.33-59.32,.62-16.5,3.08-32.98,6.84-49.14,4.99-21.47,12.25-42.18,20.51-62.64,5.53-13.7,12.35-26.52,19.98-39.06,3.34-5.49,8.38-9.1,13.24-12.57,11.94-8.53,24.68-15.97,36.83-24.14,12.52-8.43,25.85-15.22,38.83-22.69,9.88-5.69,20.51-10.07,30.85-14.95,1.34-.63,3.26-2.5,4.32-.45,1.01,1.95-.73,4.19-2.44,4.92-3.44,1.48-5.92,4.09-8.86,6.16-10.31,7.26-19.31,15.95-28.08,24.92-20.81,21.3-38,45.2-50.84,72.07-16.38,34.3-27.93,70.13-30.64,108.24-2.36,33.26-2.63,66.57,5.06,99.35,4.37,18.63,9.29,37.12,16.72,54.84,2.11,5.02,3.81,10.29,5,15.59,.6,2.66,2.88,3.48,3.89,5.49,1.71,3.39,3.61,6.68,5.27,10.08,8.14,16.63,19.73,30.85,31.08,45.28,6.03,7.67,12.16,15.33,19.39,21.75,12.38,11.01,25.66,20.95,39,30.82,9.25,6.85,19.31,12.21,29.31,17.45,11.37,5.96,23.51,10.67,36.05,14.17,7.99,2.23,15.77,5.1,24.04,6.37,7.37,1.13,14.65,3.68,22.02,3.92,23.26,.74,46.5,1.79,69.77-1.74,23.28-3.53,45.95-9.32,67.94-17.18,15.2-5.43,30.38-11.29,44.82-18.91,16.32-8.62,33.13-16.34,48.98-25.84,21.39-12.82,42.88-25.45,62.53-40.98,11.45-9.05,23.7-17.09,35.25-26.01,10.22-7.89,20.09-16.27,29.93-24.64,12.59-10.72,25.18-21.45,37.44-32.55,12.52-11.33,24.97-22.76,36.83-34.76,13.52-13.67,27.75-26.66,40.22-41.38,6.76-7.97,14.12-15.44,21.33-23.01,3.34-3.5,3.05-6.31-.25-9.81-14.13-14.97-27.79-30.39-42.15-45.14-9.01-9.26-18.4-18.18-27.81-27.06-10.46-9.87-20.34-20.56-31.23-29.78-14.52-12.29-28.28-25.49-43.58-36.92-15.1-11.29-29.41-23.62-44.48-35-9.84-7.43-16.99-17.63-24.48-27.41-19.75-25.78-42.57-48.51-69.02-67.45-28.19-20.19-58.37-36.59-91.34-47.65-3.61-1.21-7.08-2.84-10.6-4.32-.24-.1-.33-.53-1.07-1.8Z"/>
  <path class="cls-3" d="M839.45,338.32c-.02,43.26-30.37,78.86-72.85,84.02-36.75,4.47-68.95-15.37-84.2-47.43-22.22-46.72,2.85-104.08,51.75-118.16,53.27-15.33,105.33,24.99,105.3,81.56Z"/>
  <path class="cls-2" d="M651.08,337.58c.05,44.91-29.88,80.3-72.96,85.62-39.81,4.91-74.9-19.32-87.43-56.04-16.44-48.18,11.84-100.11,60.35-110.89,46.1-10.24,92.3,21.73,99.09,68.51,.67,4.64,1.04,9.26,.95,12.8Z"/>
  <path class="cls-4" d="M757.86,340.28c.01-20.36,15.06-35.71,34.99-35.71,19.76,0,35,15.61,34.99,35.82,0,20.13-15.33,35.75-35.1,35.78-19.76,.03-34.89-15.54-34.88-35.89Z"/>
  <path class="cls-4" d="M604.59,303.68c19.73,.02,34.91,15.65,34.88,35.92-.03,20.17-15.37,35.82-35.09,35.79-19.64-.03-34.9-15.79-34.87-36.01,.03-20.21,15.28-35.73,35.09-35.71Z"/>
</svg>